<svg width="16" height="16" viewBox="0 0 16 20" fill="none" xmlns="http://www.w3.org/2000/svg">
<path d="M2 0C0.9 0 0.0100002 0.9 0.0100002 2L0 18C0 19.1 0.89 20 1.99 20H14C15.1 20 16 19.1 16 18V6L10 0H2ZM9 7V1.5L14.5 7H9Z" fill="white" fill-opacity="0.8"/>
<path d="M3.87109 18H2.73828V13.4492C2.73828 13.1185 2.80729 12.8398 2.94531 12.6133C3.08333 12.3841 3.28255 12.2109 3.54297 12.0938C3.80339 11.9766 4.11719 11.918 4.48438 11.918C4.63802 11.918 4.82943 11.9258 5.05859 11.9414C5.29036 11.9544 5.52604 11.9714 5.76562 11.9922C6.00781 12.0104 6.22005 12.0299 6.40234 12.0508L5.93359 12.9375C5.69922 12.8958 5.47396 12.8633 5.25781 12.8398C5.04167 12.8164 4.83594 12.8047 4.64062 12.8047C4.47396 12.8047 4.33333 12.8294 4.21875 12.8789C4.10417 12.9284 4.01693 13.0013 3.95703 13.0977C3.89974 13.1914 3.87109 13.3086 3.87109 13.4492V18ZM5.27734 18V12.0508H6.40234V18H5.27734ZM4.71484 13.7734V14.5703H2.10938V13.7734H4.71484ZM7.16406 15.9297V15.8477C7.16406 15.5378 7.20833 15.2526 7.29688 14.9922C7.38542 14.7292 7.51432 14.5013 7.68359 14.3086C7.85286 14.1159 8.0612 13.9661 8.30859 13.8594C8.55599 13.75 8.83984 13.6953 9.16016 13.6953C9.48047 13.6953 9.76562 13.75 10.0156 13.8594C10.2656 13.9661 10.4753 14.1159 10.6445 14.3086C10.8164 14.5013 10.9466 14.7292 11.0352 14.9922C11.1237 15.2526 11.168 15.5378 11.168 15.8477V15.9297C11.168 16.237 11.1237 16.5221 11.0352 16.7852C10.9466 17.0456 10.8164 17.2734 10.6445 17.4688C10.4753 17.6615 10.2669 17.8112 10.0195 17.918C9.77214 18.0247 9.48828 18.0781 9.16797 18.0781C8.84766 18.0781 8.5625 18.0247 8.3125 17.918C8.0651 17.8112 7.85547 17.6615 7.68359 17.4688C7.51432 17.2734 7.38542 17.0456 7.29688 16.7852C7.20833 16.5221 7.16406 16.237 7.16406 15.9297ZM8.28906 15.8477V15.9297C8.28906 16.1068 8.30469 16.2721 8.33594 16.4258C8.36719 16.5794 8.41667 16.7148 8.48438 16.832C8.55469 16.9466 8.64583 17.0365 8.75781 17.1016C8.86979 17.1667 9.00651 17.1992 9.16797 17.1992C9.32422 17.1992 9.45833 17.1667 9.57031 17.1016C9.68229 17.0365 9.77214 16.9466 9.83984 16.832C9.90755 16.7148 9.95703 16.5794 9.98828 16.4258C10.0221 16.2721 10.0391 16.1068 10.0391 15.9297V15.8477C10.0391 15.6758 10.0221 15.5143 9.98828 15.3633C9.95703 15.2096 9.90625 15.0742 9.83594 14.957C9.76823 14.8372 9.67839 14.7435 9.56641 14.6758C9.45443 14.6081 9.31901 14.5742 9.16016 14.5742C9.0013 14.5742 8.86589 14.6081 8.75391 14.6758C8.64453 14.7435 8.55469 14.8372 8.48438 14.957C8.41667 15.0742 8.36719 15.2096 8.33594 15.3633C8.30469 15.5143 8.28906 15.6758 8.28906 15.8477Z" fill="black" fill-opacity="0.8"/>
</svg>
