<svg width="25" height="31" viewBox="0 0 25 31" fill="none" xmlns="http://www.w3.org/2000/svg">
<path d="M13.8753 18.5C13.8753 17.6486 13.1851 16.9584 12.3337 16.9584C11.4822 16.9584 10.792 17.6486 10.792 18.5V21.5834C10.792 22.4348 11.4822 23.125 12.3337 23.125C13.1851 23.125 13.8753 22.4348 13.8753 21.5834V18.5Z" fill="black"/>
<path fill-rule="evenodd" clip-rule="evenodd" d="M4.62501 9.43558C2.02899 10.0704 0 12.2714 0 15.0609V23.5994C0 27.7084 3.56966 30.8334 7.70834 30.8334H16.9584C21.0971 30.8334 24.6667 27.7084 24.6667 23.5994V15.0609C24.6667 12.2714 22.6377 10.0704 20.0417 9.43558V7.70834C20.0417 3.45115 16.5905 0 12.3333 0C8.07615 0 4.62501 3.45115 4.62501 7.70834V9.43558ZM16.9584 7.70834V9.25001H7.70834V7.70834C7.70834 7.16777 7.80107 6.64888 7.97152 6.16667C8.60643 4.37034 10.3196 3.08334 12.3333 3.08334C14.3471 3.08334 16.0603 4.37034 16.6952 6.16667C16.8655 6.64888 16.9584 7.16777 16.9584 7.70834ZM3.08334 15.0609C3.08334 13.6684 4.34529 12.3333 6.16667 12.3333H18.5C20.3214 12.3333 21.5834 13.6684 21.5834 15.0609V23.5994C21.5834 25.7779 19.6311 27.75 16.9584 27.75H7.70834C5.03551 27.75 3.08334 25.7779 3.08334 23.5994V15.0609Z" fill="black"/>
</svg>
