<svg width="20" height="18" viewBox="0 0 20 18" fill="none" xmlns="http://www.w3.org/2000/svg">
<path fill-rule="evenodd" clip-rule="evenodd" d="M17.5 1.5H2.5C2.16848 1.5 1.85054 1.6317 1.61612 1.86612C1.3817 2.10054 1.25 2.41848 1.25 2.75V15.25C1.25 15.5815 1.3817 15.8995 1.61612 16.1339C1.85054 16.3683 2.16848 16.5 2.5 16.5H17.5C17.8315 16.5 18.1495 16.3683 18.3839 16.1339C18.6183 15.8995 18.75 15.5815 18.75 15.25V2.75C18.75 2.41848 18.6183 2.10054 18.3839 1.86612C18.1495 1.6317 17.8315 1.5 17.5 1.5ZM2.5 0.25C1.83696 0.25 1.20107 0.513392 0.732233 0.982233C0.263392 1.45107 0 2.08696 0 2.75L0 15.25C0 15.913 0.263392 16.5489 0.732233 17.0178C1.20107 17.4866 1.83696 17.75 2.5 17.75H17.5C18.163 17.75 18.7989 17.4866 19.2678 17.0178C19.7366 16.5489 20 15.913 20 15.25V2.75C20 2.08696 19.7366 1.45107 19.2678 0.982233C18.7989 0.513392 18.163 0.25 17.5 0.25H2.5Z" fill="#0B254D"/>
<path fill-rule="evenodd" clip-rule="evenodd" d="M7.50014 10.25C7.50014 10.0843 7.56599 9.92529 7.6832 9.80808C7.80041 9.69087 7.95938 9.62502 8.12514 9.62502H11.8751C12.0409 9.62502 12.1999 9.69087 12.3171 9.80808C12.4343 9.92529 12.5001 10.0843 12.5001 10.25C12.5001 10.4158 12.4343 10.5748 12.3171 10.692C12.1999 10.8092 12.0409 10.875 11.8751 10.875H8.12514C7.95938 10.875 7.80041 10.8092 7.6832 10.692C7.56599 10.5748 7.50014 10.4158 7.50014 10.25ZM3.93264 4.18252C3.9907 4.12431 4.05967 4.07814 4.1356 4.04663C4.21153 4.01512 4.29293 3.9989 4.37514 3.9989C4.45735 3.9989 4.53875 4.01512 4.61468 4.04663C4.69061 4.07814 4.75958 4.12431 4.81764 4.18252L7.31764 6.68252C7.37585 6.74058 7.42202 6.80955 7.45353 6.88548C7.48504 6.96141 7.50126 7.04281 7.50126 7.12502C7.50126 7.20723 7.48504 7.28863 7.45353 7.36456C7.42202 7.44049 7.37585 7.50946 7.31764 7.56752L4.81764 10.0675C4.70028 10.1849 4.54111 10.2508 4.37514 10.2508C4.20917 10.2508 4.05 10.1849 3.93264 10.0675C3.81528 9.95016 3.74935 9.79099 3.74935 9.62502C3.74935 9.45905 3.81528 9.29988 3.93264 9.18252L5.99139 7.12502L3.93264 5.06752C3.87444 5.00946 3.82826 4.94049 3.79675 4.86456C3.76524 4.78863 3.74902 4.70723 3.74902 4.62502C3.74902 4.54281 3.76524 4.46141 3.79675 4.38548C3.82826 4.30955 3.87444 4.24058 3.93264 4.18252Z" fill="#0B254D"/>
</svg>
