<svg width="42" height="38" viewBox="0 0 42 38" fill="none" xmlns="http://www.w3.org/2000/svg">
<mask id="mask0_33_5815" style="mask-type:luminance" maskUnits="userSpaceOnUse" x="0" y="-2" width="43" height="40">
<path d="M43 -2H0V38H43V-2Z" fill="white"/>
</mask>
<g mask="url(#mask0_33_5815)">
<g filter="url(#filter0_d_33_5815)">
<path d="M31.967 13.5776C30.815 11.5917 28.9668 9.9772 26.7627 9.0314C26.0667 8.73284 25.3334 8.49941 24.583 8.33772L24.0438 8.22142L24.9241 7.58585C25.0353 7.5057 25.106 7.39005 25.1237 7.26036C25.1412 7.13058 25.1034 7.0022 25.0172 6.89879L24.4254 6.18952C24.3249 6.06905 24.1732 6 24.0093 6C23.8931 6 23.7785 6.03648 23.6868 6.10284L20.4847 8.41452C20.2554 8.58004 20.2136 8.88832 20.3916 9.10159L22.8763 12.0802C22.9626 12.1836 23.0868 12.2494 23.227 12.2659C23.3655 12.2815 23.5061 12.2453 23.6149 12.1668L24.3774 11.6164C24.6066 11.4508 24.6484 11.1425 24.4705 10.9292L23.7408 10.0544L24.5074 10.2534C24.9857 10.3775 25.4601 10.5398 25.9175 10.736C27.7491 11.522 29.2218 12.804 30.1764 14.4434C30.2684 14.6016 30.4459 14.7 30.6395 14.7C30.7203 14.7 30.8013 14.6822 30.8737 14.6486L31.7381 14.2486C31.865 14.1899 31.9624 14.084 32.0054 13.9582C32.0483 13.8324 32.0343 13.6936 31.967 13.5776Z" fill="white"/>
<path d="M19.1532 25.6225C19.067 25.5191 18.9426 25.4534 18.8033 25.4369C18.6648 25.4208 18.5241 25.4571 18.4146 25.5359L17.652 26.0864C17.541 26.1666 17.4702 26.2822 17.4525 26.4119C17.4349 26.5417 17.4727 26.6701 17.5589 26.7735L18.2888 27.6484L17.5222 27.4494C17.0437 27.3254 16.5695 27.1629 16.1125 26.9669C14.2808 26.181 12.8081 24.8989 11.8534 23.2592C11.7612 23.101 11.5838 23.0027 11.3904 23.0027C11.3096 23.0027 11.2286 23.0205 11.1561 23.054L10.2918 23.4542C10.1648 23.5129 10.0674 23.6187 10.0244 23.7446C9.98151 23.8703 9.99564 24.009 10.0629 24.1252C11.215 26.1112 13.0632 27.7257 15.2672 28.6715C15.9636 28.9702 16.697 29.2036 17.4466 29.3653L17.9859 29.4816L17.1057 30.1169C16.9946 30.1971 16.9237 30.3127 16.9061 30.4426C16.8886 30.5725 16.9264 30.7009 17.0127 30.8041L17.6046 31.5134C17.705 31.6339 17.8566 31.7028 18.0207 31.7028C18.1368 31.7028 18.2514 31.6664 18.3434 31.6L21.5453 29.2884C21.7746 29.1229 21.8164 28.8146 21.6384 28.6013L19.1532 25.6225Z" fill="white"/>
</g>
<path d="M16.0345 7.31346C16.0334 7.23091 16.0049 7.14937 15.9439 7.08493L12.2133 3.12072C12.2122 3.11961 12.2111 3.11925 12.2104 3.11824C12.1881 3.09513 12.1622 3.07608 12.1348 3.05928C12.1267 3.05438 12.1185 3.04997 12.11 3.04549C12.0863 3.03353 12.0614 3.02359 12.0351 3.01634C12.0281 3.01444 12.0218 3.01176 12.0148 3.01007C11.9866 3.00373 11.9573 3 11.9277 3H2.75882C2.34048 3 2 3.31676 2 3.70591V20.2941C2 20.6834 2.34048 21 2.75882 21H15.2794C15.6977 21 16.0382 20.6834 16.0382 20.2941V7.353C16.0382 7.33973 16.036 7.32673 16.0345 7.31346ZM6.74116 16.6799H5.48475V20.1481H4.44017V16.6799H3.20414V15.867H6.7412L6.74116 16.6799ZM9.84161 20.1481L9.42521 19.3731C9.25461 19.0747 9.14511 18.8523 9.01551 18.6045H9.00181C8.90621 18.8523 8.79031 19.0747 8.64691 19.3731L8.26441 20.1481H7.07606L8.40781 17.9821L7.12391 15.8668H8.31891L8.72211 16.6482C8.85841 16.9084 8.96111 17.1182 9.07021 17.3596H9.08401C9.19291 17.0865 9.28181 16.8959 9.39781 16.6482L9.78721 15.8668H10.9755L9.67791 17.9565L11.0436 20.1481H9.84161ZM14.834 16.6799H13.5776V20.1481H12.5327V16.6799H11.2965V15.867H14.8337L14.834 16.6799ZM2.75882 14.9853V3.70591H11.5482V7.31751C11.5482 7.51231 11.7183 7.67045 11.9277 7.67045H15.2794V14.9853H2.75882Z" fill="white"/>
<path d="M5.469 7.84541H9.6781C9.8174 7.84541 9.9311 7.74002 9.9311 7.61019C9.9311 7.48035 9.8174 7.37512 9.6781 7.37512H5.469C5.32929 7.37512 5.21631 7.48035 5.21631 7.61019C5.21631 7.74002 5.32929 7.84541 5.469 7.84541Z" fill="white"/>
<path d="M12.3706 9.25598H5.46265C5.32304 9.25598 5.20996 9.36108 5.20996 9.49098C5.20996 9.62088 5.32304 9.72618 5.46265 9.72618H12.3706C12.5103 9.72618 12.6236 9.62078 12.6236 9.49098C12.6236 9.36098 12.5102 9.25598 12.3706 9.25598Z" fill="white"/>
<path d="M12.3706 11.1235H5.46265C5.32304 11.1235 5.20996 11.2287 5.20996 11.3588C5.20996 11.4886 5.32304 11.594 5.46265 11.594H12.3706C12.5103 11.594 12.6236 11.4886 12.6236 11.3588C12.6236 11.2286 12.5102 11.1235 12.3706 11.1235Z" fill="white"/>
<path d="M12.3706 13.0359H5.46265C5.32304 13.0359 5.20996 13.1412 5.20996 13.2711C5.20996 13.4011 5.32304 13.5062 5.46265 13.5062H12.3706C12.5103 13.5062 12.6236 13.4011 12.6236 13.2711C12.6236 13.1412 12.5102 13.0359 12.3706 13.0359Z" fill="white"/>
<path fill-rule="evenodd" clip-rule="evenodd" d="M37.7002 22H25.7002C25.435 22 25.1806 22.1054 24.9931 22.2929C24.8056 22.4804 24.7002 22.7348 24.7002 23V33C24.7002 33.2652 24.8056 33.5196 24.9931 33.7071C25.1806 33.8946 25.435 34 25.7002 34H37.7002C37.9654 34 38.2198 33.8946 38.4073 33.7071C38.5948 33.5196 38.7002 33.2652 38.7002 33V23C38.7002 22.7348 38.5948 22.4804 38.4073 22.2929C38.2198 22.1054 37.9654 22 37.7002 22ZM25.7002 21C25.1698 21 24.6611 21.2107 24.286 21.5858C23.9109 21.9609 23.7002 22.4696 23.7002 23V33C23.7002 33.5304 23.9109 34.0391 24.286 34.4142C24.6611 34.7893 25.1698 35 25.7002 35H37.7002C38.2306 35 38.7393 34.7893 39.1144 34.4142C39.4895 34.0391 39.7002 33.5304 39.7002 33V23C39.7002 22.4696 39.4895 21.9609 39.1144 21.5858C38.7393 21.2107 38.2306 21 37.7002 21H25.7002Z" fill="white"/>
<path fill-rule="evenodd" clip-rule="evenodd" d="M29.7001 29C29.7001 28.8674 29.7528 28.7402 29.8466 28.6465C29.9403 28.5527 30.0675 28.5 30.2001 28.5H33.2001C33.3327 28.5 33.4599 28.5527 33.5537 28.6465C33.6474 28.7402 33.7001 28.8674 33.7001 29C33.7001 29.1326 33.6474 29.2598 33.5537 29.3536C33.4599 29.4473 33.3327 29.5 33.2001 29.5H30.2001C30.0675 29.5 29.9403 29.4473 29.8466 29.3536C29.7528 29.2598 29.7001 29.1326 29.7001 29ZM26.8461 24.146C26.8926 24.0994 26.9477 24.0625 27.0085 24.0373C27.0692 24.0121 27.1343 23.9991 27.2001 23.9991C27.2659 23.9991 27.331 24.0121 27.3917 24.0373C27.4525 24.0625 27.5077 24.0994 27.5541 24.146L29.5541 26.146C29.6007 26.1925 29.6376 26.2476 29.6628 26.3084C29.688 26.3691 29.701 26.4342 29.701 26.5C29.701 26.5658 29.688 26.6309 29.6628 26.6916C29.6376 26.7524 29.6007 26.8076 29.5541 26.854L27.5541 28.854C27.4602 28.9479 27.3329 29.0006 27.2001 29.0006C27.0673 29.0006 26.94 28.9479 26.8461 28.854C26.7522 28.7601 26.6995 28.6328 26.6995 28.5C26.6995 28.3672 26.7522 28.2399 26.8461 28.146L28.4931 26.5L26.8461 24.854C26.7995 24.8076 26.7626 24.7524 26.7374 24.6916C26.7122 24.6309 26.6992 24.5658 26.6992 24.5C26.6992 24.4342 26.7122 24.3691 26.7374 24.3084C26.7626 24.2476 26.7995 24.1925 26.8461 24.146Z" fill="white"/>
</g>
<defs>
<filter id="filter0_d_33_5815" x="6" y="6" width="30.0298" height="33.7029" filterUnits="userSpaceOnUse" color-interpolation-filters="sRGB">
<feFlood flood-opacity="0" result="BackgroundImageFix"/>
<feColorMatrix in="SourceAlpha" type="matrix" values="0 0 0 0 0 0 0 0 0 0 0 0 0 0 0 0 0 0 127 0" result="hardAlpha"/>
<feOffset dy="4"/>
<feGaussianBlur stdDeviation="2"/>
<feComposite in2="hardAlpha" operator="out"/>
<feColorMatrix type="matrix" values="0 0 0 0 0 0 0 0 0 0 0 0 0 0 0 0 0 0 0.25 0"/>
<feBlend mode="normal" in2="BackgroundImageFix" result="effect1_dropShadow_33_5815"/>
<feBlend mode="normal" in="SourceGraphic" in2="effect1_dropShadow_33_5815" result="shape"/>
</filter>
</defs>
</svg>
