<svg width="28" height="16" viewBox="0 0 28 16" fill="none" xmlns="http://www.w3.org/2000/svg">
<mask id="path-1-inside-1_108_71" fill="white">
<path d="M9.50006 15L2.50006 8L9.50006 1L8.66675 0L0.666748 8L8.66675 16L9.50006 15ZM18.5001 15L25.5001 8L18.5001 1L19.3334 0L27.3334 8L19.3334 16L18.5001 15Z"/>
</mask>
<path d="M9.50006 15L2.50006 8L9.50006 1L8.66675 0L0.666748 8L8.66675 16L9.50006 15ZM18.5001 15L25.5001 8L18.5001 1L19.3334 0L27.3334 8L19.3334 16L18.5001 15Z" fill="#0B254D"/>
<path d="M9.50006 15L12.573 17.5607L14.9114 14.7545L12.3285 12.1716L9.50006 15ZM2.50006 8L-0.328366 5.17157L-3.15679 8L-0.328366 10.8284L2.50006 8ZM9.50006 1L12.3285 3.82843L14.9114 1.2455L12.573 -1.5607L9.50006 1ZM8.66675 0L11.7397 -2.5607L8.93558 -5.92569L5.83832 -2.82843L8.66675 0ZM0.666748 8L-2.16168 5.17157L-4.99011 8L-2.16168 10.8284L0.666748 8ZM8.66675 16L5.83832 18.8284L8.93558 21.9257L11.7397 18.5607L8.66675 16ZM18.5001 15L15.6716 12.1716L13.0886 14.7546L15.4272 17.5608L18.5001 15ZM25.5001 8L28.3285 10.8284L31.1569 8L28.3285 5.17157L25.5001 8ZM18.5001 1L15.4272 -1.56077L13.0886 1.24544L15.6716 3.82843L18.5001 1ZM19.3334 0L22.1618 -2.82843L19.0647 -5.92561L16.2606 -2.56077L19.3334 0ZM27.3334 8L30.1618 10.8284L32.9903 8L30.1618 5.17157L27.3334 8ZM19.3334 16L16.2606 18.5608L19.0647 21.9256L22.1618 18.8284L19.3334 16ZM12.3285 12.1716L5.32849 5.17157L-0.328366 10.8284L6.67164 17.8284L12.3285 12.1716ZM5.32849 10.8284L12.3285 3.82843L6.67163 -1.82843L-0.328366 5.17157L5.32849 10.8284ZM12.573 -1.5607L11.7397 -2.5607L5.59383 2.5607L6.42714 3.5607L12.573 -1.5607ZM5.83832 -2.82843L-2.16168 5.17157L3.49518 10.8284L11.4952 2.82843L5.83832 -2.82843ZM-2.16168 10.8284L5.83832 18.8284L11.4952 13.1716L3.49518 5.17157L-2.16168 10.8284ZM11.7397 18.5607L12.573 17.5607L6.42715 12.4393L5.59383 13.4393L11.7397 18.5607ZM21.3285 17.8284L28.3285 10.8284L22.6716 5.17157L15.6716 12.1716L21.3285 17.8284ZM28.3285 5.17157L21.3285 -1.82843L15.6716 3.82843L22.6716 10.8284L28.3285 5.17157ZM21.5729 3.56077L22.4063 2.56077L16.2606 -2.56077L15.4272 -1.56077L21.5729 3.56077ZM16.505 2.82843L24.505 10.8284L30.1618 5.17157L22.1618 -2.82843L16.505 2.82843ZM24.505 5.17157L16.505 13.1716L22.1618 18.8284L30.1618 10.8284L24.505 5.17157ZM22.4063 13.4392L21.5729 12.4392L15.4272 17.5608L16.2606 18.5608L22.4063 13.4392Z" fill="#0D1117" fill-opacity="0.12" mask="url(#path-1-inside-1_108_71)"/>
</svg>
