<svg width="45" height="44" viewBox="0 0 45 44" fill="none" xmlns="http://www.w3.org/2000/svg">
<path d="M43.4205 16.6807C40.7795 17.0108 38.3036 15.8554 36.8181 13.3795C35.4976 11.0687 35.6627 8.09759 37.3133 6.11687C34.8374 3.80602 31.8663 2.15542 28.7301 1.16506C27.7398 3.4759 25.4289 5.12651 22.6229 5.12651C19.8169 5.12651 17.506 3.4759 16.5157 1C13.2145 1.99036 10.2434 3.64096 7.93253 5.95181C9.41807 8.09759 9.74819 11.0687 8.26265 13.3795C6.94217 15.6904 4.3012 17.0108 1.66024 16.6807C1.33012 18.3313 1 19.9819 1 21.6325C1 23.2831 1.16506 25.0988 1.66024 26.5843C4.3012 26.2542 6.77711 27.4096 8.26265 29.8855C9.58313 32.1964 9.41807 35.1675 7.76747 37.1482C10.2434 39.459 13.2145 41.1096 16.3506 42.1C17.341 39.7892 19.6518 37.9735 22.4578 37.9735C25.2639 37.9735 27.5747 39.6241 28.5651 42.1C31.8663 41.1096 34.8373 39.459 37.1482 37.1482C35.6627 35.1675 35.3325 32.1964 36.653 29.8855C37.9735 27.5747 40.6145 26.2542 43.2554 26.5843C43.5855 24.9337 43.9157 23.2831 43.9157 21.6325C44.0807 19.9819 43.9157 18.1663 43.4205 16.6807Z" stroke="black" stroke-width="2" stroke-miterlimit="10" stroke-linecap="round" stroke-linejoin="round"/>
<path d="M14.3703 16.6807L9.41846 21.6325L14.3703 26.5843" stroke="black" stroke-width="2" stroke-miterlimit="10" stroke-linecap="round" stroke-linejoin="round"/>
<path d="M30.876 16.6807L35.8278 21.6325L30.876 26.5843" stroke="black" stroke-width="2" stroke-miterlimit="10" stroke-linecap="round" stroke-linejoin="round"/>
<path d="M25.9242 15.0302L19.3218 28.235" stroke="black" stroke-width="2" stroke-miterlimit="10" stroke-linecap="round" stroke-linejoin="round"/>
</svg>
