<svg width="20" height="20" viewBox="0 0 20 20" fill="none" xmlns="http://www.w3.org/2000/svg">
<g clip-path="url(#clip0_66_89)">
<path fill-rule="evenodd" clip-rule="evenodd" d="M17.5 2.5H2.5C2.16848 2.5 1.85054 2.6317 1.61612 2.86612C1.3817 3.10054 1.25 3.41848 1.25 3.75V16.25C1.25 16.5815 1.3817 16.8995 1.61612 17.1339C1.85054 17.3683 2.16848 17.5 2.5 17.5H17.5C17.8315 17.5 18.1495 17.3683 18.3839 17.1339C18.6183 16.8995 18.75 16.5815 18.75 16.25V3.75C18.75 3.41848 18.6183 3.10054 18.3839 2.86612C18.1495 2.6317 17.8315 2.5 17.5 2.5ZM2.5 1.25C1.83696 1.25 1.20107 1.51339 0.732233 1.98223C0.263392 2.45107 0 3.08696 0 3.75L0 16.25C0 16.913 0.263392 17.5489 0.732233 18.0178C1.20107 18.4866 1.83696 18.75 2.5 18.75H17.5C18.163 18.75 18.7989 18.4866 19.2678 18.0178C19.7366 17.5489 20 16.913 20 16.25V3.75C20 3.08696 19.7366 2.45107 19.2678 1.98223C18.7989 1.51339 18.163 1.25 17.5 1.25H2.5Z" fill="white"/>
<path fill-rule="evenodd" clip-rule="evenodd" d="M7.5 11.25C7.5 11.0843 7.56585 10.9253 7.68306 10.8081C7.80027 10.6909 7.95924 10.625 8.125 10.625H11.875C12.0408 10.625 12.1997 10.6909 12.3169 10.8081C12.4342 10.9253 12.5 11.0843 12.5 11.25C12.5 11.4158 12.4342 11.5748 12.3169 11.692C12.1997 11.8092 12.0408 11.875 11.875 11.875H8.125C7.95924 11.875 7.80027 11.8092 7.68306 11.692C7.56585 11.5748 7.5 11.4158 7.5 11.25ZM3.9325 5.18252C3.99056 5.12431 4.05953 5.07814 4.13546 5.04663C4.21139 5.01512 4.29279 4.9989 4.375 4.9989C4.45721 4.9989 4.53861 5.01512 4.61455 5.04663C4.69048 5.07814 4.75945 5.12431 4.8175 5.18252L7.3175 7.68252C7.37571 7.74058 7.42189 7.80955 7.45339 7.88548C7.4849 7.96141 7.50112 8.04281 7.50112 8.12502C7.50112 8.20723 7.4849 8.28863 7.45339 8.36456C7.42189 8.44049 7.37571 8.50946 7.3175 8.56752L4.8175 11.0675C4.70015 11.1849 4.54097 11.2508 4.375 11.2508C4.20903 11.2508 4.04986 11.1849 3.9325 11.0675C3.81514 10.9502 3.74921 10.791 3.74921 10.625C3.74921 10.459 3.81514 10.2999 3.9325 10.1825L5.99125 8.12502L3.9325 6.06752C3.8743 6.00946 3.82812 5.94049 3.79661 5.86456C3.7651 5.78863 3.74889 5.70723 3.74889 5.62502C3.74889 5.54281 3.7651 5.46141 3.79661 5.38548C3.82812 5.30955 3.8743 5.24058 3.9325 5.18252Z" fill="white"/>
</g>
<defs>
<clipPath id="clip0_66_89">
<rect width="20" height="20" fill="white"/>
</clipPath>
</defs>
</svg>
