<svg width="34" height="31" viewBox="0 0 34 31" fill="none" xmlns="http://www.w3.org/2000/svg">
<path d="M33.1294 8.85046V30.0831H27.7231V8.85046H33.1294Z" fill="black"/>
<path d="M27.4175 2.92113C27.4175 1.26437 28.6382 0 30.4258 0C32.257 0 33.3905 1.26437 33.4341 2.92113C33.4341 4.53429 32.257 5.79866 30.3822 5.79866C28.5947 5.79866 27.4175 4.53429 27.4175 2.92113Z" fill="black"/>
<path fill-rule="evenodd" clip-rule="evenodd" d="M20.0553 30.0831L17.3958 21.7557H8.0658L5.53706 30.0831H0L9.41736 0.69751H16.2622L25.8104 30.0831H20.0553ZM11.2048 10.4635L8.93778 17.701H16.4802L14.1695 10.4635C13.7109 9.01686 13.3094 7.42736 12.9416 5.97235C12.8552 5.62962 12.7704 5.29438 12.6871 4.9702H12.5999C12.4509 5.55261 12.3015 6.17587 12.1485 6.81381C11.8552 8.03822 11.5488 9.31729 11.2048 10.4635Z" fill="black"/>
</svg>
