<svg width="14" height="14" viewBox="0 0 14 14" fill="none" xmlns="http://www.w3.org/2000/svg">
<path fill-rule="evenodd" clip-rule="evenodd" d="M0.851826 13.1481C1.20981 13.5061 1.79021 13.5061 2.14819 13.1481L7.00001 8.29631L11.8518 13.1481C12.2098 13.5061 12.7902 13.5061 13.1482 13.1481C13.5061 12.7902 13.5061 12.2098 13.1482 11.8518L8.29636 6.99996L13.1482 2.14813C13.5061 1.79018 13.5061 1.20974 13.1482 0.851784C12.7902 0.493826 12.2098 0.493826 11.8518 0.851784L7.00001 5.70361L2.14819 0.851784C1.79021 0.493826 1.20981 0.493826 0.851826 0.851784C0.493849 1.20974 0.493849 1.79018 0.851826 2.14813L5.70366 6.99996L0.851826 11.8518C0.493849 12.2098 0.493849 12.7902 0.851826 13.1481Z" fill="white"/>
</svg>
