<svg width="26" height="26" viewBox="0 0 26 26" fill="none" xmlns="http://www.w3.org/2000/svg">
<path d="M22.3929 5.97472L19.2128 2.79459C18.9828 2.56425 18.6765 2.4375 18.3507 2.4375H10.1562C9.48431 2.4375 8.9375 2.98431 8.9375 3.65625V5.6875H4.46875C3.79681 5.6875 3.25 6.23431 3.25 6.90625V22.3438C3.25 23.0157 3.79681 23.5625 4.46875 23.5625H15.8438C16.5157 23.5625 17.0625 23.0157 17.0625 22.3438V20.3125H21.5312C22.2032 20.3125 22.75 19.7657 22.75 19.0938V6.83637C22.75 6.51097 22.6232 6.20466 22.3929 5.97472ZM19.0938 3.82444L21.3631 6.09375H19.5C19.2762 6.09375 19.0938 5.91175 19.0938 5.6875V3.82444ZM21.5312 19.5H10.1562C9.93241 19.5 9.75 19.318 9.75 19.0938V17.4688H8.9375V19.0938C8.9375 19.7657 9.48431 20.3125 10.1562 20.3125H16.25V22.3438C16.25 22.568 16.0676 22.75 15.8438 22.75H4.46875C4.24491 22.75 4.0625 22.568 4.0625 22.3438V6.90625C4.0625 6.682 4.24491 6.5 4.46875 6.5H8.9375V8.53125H9.75V3.65625C9.75 3.432 9.93241 3.25 10.1562 3.25H18.2812V5.6875C18.2812 6.35944 18.8281 6.90625 19.5 6.90625H21.9375V19.0938C21.9375 19.318 21.7551 19.5 21.5312 19.5Z" fill="white"/>
<path d="M11.9698 15.0158L10.1392 16.1598C9.79347 16.3759 9.34497 16.1273 9.34497 15.7198V15.0312H5.68872V14.2187H9.34497V13.5302C9.34497 13.1227 9.79347 12.8741 10.1392 13.0902L11.9698 14.2342C12.2586 14.4146 12.2586 14.8354 11.9698 15.0158Z" fill="white"/>
<path d="M13.6252 10.9842L15.4558 9.84019C15.8015 9.62406 16.25 9.87269 16.25 10.2802V10.9687H20.3125V11.7812H16.25V12.4698C16.25 12.8773 15.8015 13.1259 15.4558 12.9098L13.6252 11.7658C13.3364 11.5854 13.3364 11.1646 13.6252 10.9842Z" fill="white"/>
</svg>
