<svg width="15" height="28" viewBox="0 0 15 28" fill="none" xmlns="http://www.w3.org/2000/svg">
<path d="M7.18942 0C3.22516 0 0 3.22528 0 7.18953C0 7.99976 0.656816 8.65669 1.46716 8.65669C2.2775 8.65669 2.93431 7.99976 2.93431 7.18953C2.93431 4.84326 4.84314 2.93431 7.18942 2.93431C9.53569 2.93431 11.4445 4.84326 11.4445 7.18953C11.4445 8.53897 10.4687 9.44109 8.86115 10.7663C7.38977 11.9793 5.72226 13.3542 5.72226 15.5399V20.247C5.72226 21.0571 6.3792 21.7141 7.18942 21.7141C7.99964 21.7141 8.65657 21.0571 8.65657 20.247V15.5399C8.65657 14.738 9.61656 13.9467 10.7277 13.0303C12.3544 11.6892 14.3787 10.0202 14.3787 7.18953C14.3788 3.22516 11.1536 0 7.18942 0Z" fill="white"/>
<path d="M7.18957 23.8403C6.15176 23.8403 5.30762 24.6846 5.30762 25.7224C5.30762 26.76 6.15176 27.6042 7.18957 27.6042C8.22726 27.6042 9.07152 26.76 9.07152 25.7224C9.07152 24.6846 8.22726 23.8403 7.18957 23.8403Z" fill="white"/>
</svg>
