<svg width="14" height="18" viewBox="0 0 14 18" fill="none" xmlns="http://www.w3.org/2000/svg">
<path d="M13.0554 4.31346C13.0543 4.23091 13.0278 4.14937 12.9711 4.08493L9.50077 0.120719C9.49976 0.119608 9.49875 0.119248 9.49803 0.118235C9.47734 0.0951306 9.45322 0.0760783 9.42773 0.059281C9.42015 0.054379 9.41257 0.0499673 9.40463 0.0454901C9.38257 0.0335294 9.35947 0.0235947 9.33502 0.0163398C9.32845 0.0144444 9.3226 0.0117647 9.31607 0.0100653C9.28986 0.00372549 9.26263 0 9.23505 0H0.705881C0.316732 0 0 0.316764 0 0.705914V17.2941C0 17.6834 0.316732 18 0.705881 18H12.3529C12.7421 18 13.0588 17.6834 13.0588 17.2941V4.353C13.0588 4.33973 13.0567 4.32673 13.0554 4.31346ZM4.41039 13.6799H3.24163V17.1481H2.26993V13.6799H1.12013V12.867H4.41042V13.6799H4.41039ZM7.29457 17.1481L6.90715 16.3731C6.74846 16.0747 6.64659 15.8523 6.52604 15.6045H6.51336C6.42434 15.8523 6.31656 16.0747 6.18316 16.3731L5.82738 17.1481H4.72192L5.96078 14.9821L4.76643 12.8668H5.87806L6.2531 13.6482C6.37993 13.9084 6.47542 14.1182 6.57698 14.3596H6.58976C6.6911 14.0865 6.77381 13.8959 6.88169 13.6482L7.24395 12.8668H8.3493L7.14225 14.9565L8.4127 17.1481H7.29457ZM11.9386 13.6799H10.7699V17.1481H9.79789V13.6799H8.64793V12.867H11.9383V13.6799H11.9386ZM0.705881 11.9853V0.705914H8.88208V4.31751C8.88208 4.51231 9.04031 4.67045 9.23505 4.67045H12.3529V11.9853H0.705881Z" fill="white"/>
<path d="M3.22718 4.84538H7.1426C7.2722 4.84538 7.37799 4.73999 7.37799 4.61016C7.37799 4.48032 7.2722 4.37509 7.1426 4.37509H3.22718C3.09721 4.37509 2.99211 4.48032 2.99211 4.61016C2.99211 4.73999 3.09721 4.84538 3.22718 4.84538Z" fill="white"/>
<path d="M9.64697 6.25595H3.22097C3.0911 6.25595 2.9859 6.36108 2.9859 6.49098C2.9859 6.62085 3.0911 6.72621 3.22097 6.72621H9.64697C9.7769 6.72621 9.88236 6.62082 9.88236 6.49098C9.88236 6.36105 9.77687 6.25595 9.64697 6.25595Z" fill="white"/>
<path d="M9.64697 8.12354H3.22097C3.0911 8.12354 2.9859 8.22867 2.9859 8.35876C2.9859 8.48863 3.0911 8.59399 3.22097 8.59399H9.64697C9.7769 8.59399 9.88236 8.4886 9.88236 8.35876C9.88236 8.22863 9.77687 8.12354 9.64697 8.12354Z" fill="white"/>
<path d="M9.64697 10.0359H3.22097C3.0911 10.0359 2.9859 10.1412 2.9859 10.2711C2.9859 10.4011 3.0911 10.5062 3.22097 10.5062H9.64697C9.7769 10.5062 9.88236 10.4011 9.88236 10.2711C9.88236 10.1412 9.77687 10.0359 9.64697 10.0359Z" fill="white"/>
</svg>
