<svg width="20" height="19" viewBox="0 0 20 19" fill="none" xmlns="http://www.w3.org/2000/svg">
<path d="M15.0268 0.306458H2.76878C1.63491 0.306458 0.725769 1.22581 0.725769 2.34947V16.6505C0.725769 17.7742 1.43061 18.2339 2.56448 18.2339H17.2742C18.3978 18.2339 19.1129 17.7742 19.1129 16.6505V4.39248L15.0268 0.306458ZM18.1935 17.3145H1.64512V1.22581H14.5161L18.1935 4.90323V17.3145ZM9.91932 9.50001C8.22362 9.50001 6.8548 10.8688 6.8548 12.5645C6.8548 14.2602 8.22362 15.629 9.91932 15.629C11.615 15.629 12.9838 14.2602 12.9838 12.5645C12.9838 10.8688 11.615 9.50001 9.91932 9.50001ZM3.79029 3.37097H12.9838V7.457H3.79029V3.37097Z" fill="white"/>
</svg>
