<svg width="38" height="35" viewBox="0 0 38 35" fill="none" xmlns="http://www.w3.org/2000/svg">
<g filter="url(#filter0_d_111_54)">
<path d="M29.967 10.5776C28.815 8.5917 26.9668 6.9772 24.7627 6.0314C24.0667 5.73284 23.3334 5.49941 22.583 5.33772L22.0438 5.22142L22.9241 4.58585C23.0353 4.5057 23.106 4.39005 23.1237 4.26036C23.1412 4.13058 23.1034 4.0022 23.0172 3.89879L22.4254 3.18952C22.3249 3.06905 22.1732 3 22.0093 3C21.8931 3 21.7785 3.03648 21.6868 3.10284L18.4847 5.41452C18.2554 5.58004 18.2136 5.88832 18.3916 6.10159L20.8763 9.0802C20.9626 9.1836 21.0868 9.2494 21.227 9.2659C21.3655 9.2815 21.5061 9.2453 21.6149 9.1668L22.3774 8.6164C22.6066 8.4508 22.6484 8.1425 22.4705 7.9292L21.7408 7.0544L22.5074 7.2534C22.9857 7.3775 23.4601 7.5398 23.9175 7.736C25.7491 8.522 27.2218 9.804 28.1764 11.4434C28.2684 11.6016 28.4459 11.7 28.6395 11.7C28.7203 11.7 28.8013 11.6822 28.8737 11.6486L29.7381 11.2486C29.865 11.1899 29.9624 11.084 30.0054 10.9582C30.0483 10.8324 30.0343 10.6936 29.967 10.5776Z" fill="#0B254D"/>
<path d="M17.1532 22.6225C17.067 22.5191 16.9426 22.4534 16.8033 22.4369C16.6648 22.4208 16.5241 22.4571 16.4146 22.5359L15.652 23.0864C15.541 23.1666 15.4702 23.2822 15.4525 23.4119C15.4349 23.5417 15.4727 23.6701 15.5589 23.7735L16.2888 24.6484L15.5222 24.4494C15.0437 24.3254 14.5695 24.1629 14.1125 23.9669C12.2808 23.181 10.8081 21.8989 9.85341 20.2592C9.76121 20.101 9.58381 20.0027 9.39041 20.0027C9.30961 20.0027 9.22861 20.0205 9.15611 20.054L8.29181 20.4542C8.16481 20.5129 8.06741 20.6187 8.02441 20.7446C7.98152 20.8703 7.99565 21.009 8.06291 21.1252C9.21501 23.1112 11.0632 24.7257 13.2672 25.6715C13.9636 25.9702 14.697 26.2036 15.4466 26.3653L15.9859 26.4816L15.1057 27.1169C14.9946 27.1971 14.9237 27.3127 14.9061 27.4426C14.8886 27.5725 14.9264 27.7009 15.0127 27.8041L15.6046 28.5134C15.705 28.6339 15.8566 28.7028 16.0207 28.7028C16.1368 28.7028 16.2514 28.6664 16.3434 28.6L19.5453 26.2884C19.7746 26.1229 19.8164 25.8146 19.6384 25.6013L17.1532 22.6225Z" fill="#0B254D"/>
</g>
<path d="M14.0345 4.31346C14.0334 4.23091 14.0049 4.14937 13.9439 4.08493L10.2133 0.12072L10.2104 0.11824C10.1881 0.0951301 10.1622 0.0760799 10.1348 0.0592799C10.1267 0.0543799 10.1185 0.04997 10.11 0.04549C10.0863 0.03353 10.0614 0.02359 10.0351 0.01634C10.0281 0.01444 10.0218 0.0117601 10.0148 0.0100701C9.9866 0.00373009 9.9573 0 9.9277 0H0.75882C0.34048 0 0 0.31676 0 0.70591V17.2941C0 17.6834 0.34048 18 0.75882 18H13.2794C13.6977 18 14.0382 17.6834 14.0382 17.2941V4.353C14.0382 4.33973 14.036 4.32673 14.0345 4.31346ZM4.74116 13.6799H3.48475V17.1481H2.44017V13.6799H1.20414V12.867H4.7412L4.74116 13.6799ZM7.84161 17.1481L7.42521 16.3731C7.25461 16.0747 7.14511 15.8523 7.01551 15.6045H7.00181C6.90621 15.8523 6.79031 16.0747 6.64691 16.3731L6.26441 17.1481H5.07606L6.40781 14.9821L5.12391 12.8668H6.31891L6.72211 13.6482C6.85841 13.9084 6.96111 14.1182 7.07021 14.3596H7.08401C7.19291 14.0865 7.28181 13.8959 7.39781 13.6482L7.78721 12.8668H8.9755L7.67791 14.9565L9.0436 17.1481H7.84161ZM12.834 13.6799H11.5776V17.1481H10.5327V13.6799H9.2965V12.867H12.8337L12.834 13.6799ZM0.75882 11.9853V0.70591H9.5482V4.31751C9.5482 4.51231 9.7183 4.67045 9.9277 4.67045H13.2794V11.9853H0.75882Z" fill="#0B254D"/>
<path d="M3.469 4.84541H7.6781C7.8174 4.84541 7.9311 4.74002 7.9311 4.61019C7.9311 4.48035 7.8174 4.37512 7.6781 4.37512H3.469C3.32929 4.37512 3.21631 4.48035 3.21631 4.61019C3.21631 4.74002 3.32929 4.84541 3.469 4.84541Z" fill="#0B254D"/>
<path d="M10.3706 6.25598H3.46265C3.32304 6.25598 3.20996 6.36108 3.20996 6.49098C3.20996 6.62088 3.32304 6.72618 3.46265 6.72618H10.3706C10.5103 6.72618 10.6236 6.62078 10.6236 6.49098C10.6236 6.36098 10.5102 6.25598 10.3706 6.25598Z" fill="#0B254D"/>
<path d="M10.3706 8.1235H3.46265C3.32304 8.1235 3.20996 8.2287 3.20996 8.3588C3.20996 8.4886 3.32304 8.594 3.46265 8.594H10.3706C10.5103 8.594 10.6236 8.4886 10.6236 8.3588C10.6236 8.2286 10.5102 8.1235 10.3706 8.1235Z" fill="#0B254D"/>
<path d="M10.3706 10.0359H3.46265C3.32304 10.0359 3.20996 10.1412 3.20996 10.2711C3.20996 10.4011 3.32304 10.5062 3.46265 10.5062H10.3706C10.5103 10.5062 10.6236 10.4011 10.6236 10.2711C10.6236 10.1412 10.5102 10.0359 10.3706 10.0359Z" fill="#0B254D"/>
<path fill-rule="evenodd" clip-rule="evenodd" d="M35.7002 19H23.7002C23.435 19 23.1806 19.1054 22.9931 19.2929C22.8056 19.4804 22.7002 19.7348 22.7002 20V30C22.7002 30.2652 22.8056 30.5196 22.9931 30.7071C23.1806 30.8946 23.435 31 23.7002 31H35.7002C35.9654 31 36.2198 30.8946 36.4073 30.7071C36.5948 30.5196 36.7002 30.2652 36.7002 30V20C36.7002 19.7348 36.5948 19.4804 36.4073 19.2929C36.2198 19.1054 35.9654 19 35.7002 19ZM23.7002 18C23.1698 18 22.6611 18.2107 22.286 18.5858C21.9109 18.9609 21.7002 19.4696 21.7002 20V30C21.7002 30.5304 21.9109 31.0391 22.286 31.4142C22.6611 31.7893 23.1698 32 23.7002 32H35.7002C36.2306 32 36.7393 31.7893 37.1144 31.4142C37.4895 31.0391 37.7002 30.5304 37.7002 30V20C37.7002 19.4696 37.4895 18.9609 37.1144 18.5858C36.7393 18.2107 36.2306 18 35.7002 18H23.7002Z" fill="#0B254D"/>
<path fill-rule="evenodd" clip-rule="evenodd" d="M27.7001 26C27.7001 25.8674 27.7528 25.7402 27.8466 25.6465C27.9403 25.5527 28.0675 25.5 28.2001 25.5H31.2001C31.3327 25.5 31.4599 25.5527 31.5537 25.6465C31.6474 25.7402 31.7001 25.8674 31.7001 26C31.7001 26.1326 31.6474 26.2598 31.5537 26.3536C31.4599 26.4473 31.3327 26.5 31.2001 26.5H28.2001C28.0675 26.5 27.9403 26.4473 27.8466 26.3536C27.7528 26.2598 27.7001 26.1326 27.7001 26ZM24.8461 21.146C24.8926 21.0994 24.9477 21.0625 25.0085 21.0373C25.0692 21.0121 25.1343 20.9991 25.2001 20.9991C25.2659 20.9991 25.331 21.0121 25.3917 21.0373C25.4525 21.0625 25.5077 21.0994 25.5541 21.146L27.5541 23.146C27.6007 23.1925 27.6376 23.2476 27.6628 23.3084C27.688 23.3691 27.701 23.4342 27.701 23.5C27.701 23.5658 27.688 23.6309 27.6628 23.6916C27.6376 23.7524 27.6007 23.8076 27.5541 23.854L25.5541 25.854C25.4602 25.9479 25.3329 26.0006 25.2001 26.0006C25.0673 26.0006 24.94 25.9479 24.8461 25.854C24.7522 25.7601 24.6995 25.6328 24.6995 25.5C24.6995 25.3672 24.7522 25.2399 24.8461 25.146L26.4931 23.5L24.8461 21.854C24.7995 21.8076 24.7626 21.7524 24.7374 21.6916C24.7122 21.6309 24.6992 21.5658 24.6992 21.5C24.6992 21.4342 24.7122 21.3691 24.7374 21.3084C24.7626 21.2476 24.7995 21.1925 24.8461 21.146Z" fill="#0B254D"/>
<defs>
<filter id="filter0_d_111_54" x="4" y="3" width="30.0298" height="33.7028" filterUnits="userSpaceOnUse" color-interpolation-filters="sRGB">
<feFlood flood-opacity="0" result="BackgroundImageFix"/>
<feColorMatrix in="SourceAlpha" type="matrix" values="0 0 0 0 0 0 0 0 0 0 0 0 0 0 0 0 0 0 127 0" result="hardAlpha"/>
<feOffset dy="4"/>
<feGaussianBlur stdDeviation="2"/>
<feComposite in2="hardAlpha" operator="out"/>
<feColorMatrix type="matrix" values="0 0 0 0 0 0 0 0 0 0 0 0 0 0 0 0 0 0 0.25 0"/>
<feBlend mode="normal" in2="BackgroundImageFix" result="effect1_dropShadow_111_54"/>
<feBlend mode="normal" in="SourceGraphic" in2="effect1_dropShadow_111_54" result="shape"/>
</filter>
</defs>
</svg>
