<svg width="445" height="28" viewBox="0 0 445 28" fill="none" xmlns="http://www.w3.org/2000/svg">
<path d="M0 27.0139H40C41.6667 27.5139 46.5 26.4139 52.5 18.0139C60 7.51388 64 1.01388 70 1.01388C74.8 1.01388 135.667 1.01388 165.5 1.01388C167 0.847212 171.2 2.11388 176 8.51388C180.8 14.9139 185.333 20.8472 187 23.0139C190.333 25.6806 198.4 29.4139 204 23.0139C211 15.0139 218 1.01388 224.5 1.01388C229.7 1.01388 311.667 1.01388 352 1.01388C354 0.847225 359.3 2.41392 364.5 10.0139C371 19.5139 382 35.0139 392.5 21.5139C403 8.01392 405.5 1.01392 413 1.01392C419 1.01392 436.833 1.01392 445 1.01392" stroke="url(#paint0_linear_108_76)"/>
<defs>
<linearGradient id="paint0_linear_108_76" x1="0" y1="14.0576" x2="445" y2="14.0576" gradientUnits="userSpaceOnUse">
<stop stop-color="#1ABBDE"/>
<stop offset="1" stop-color="#8193F0"/>
</linearGradient>
</defs>
</svg>
