<svg width="17" height="19" viewBox="0 0 17 19" fill="none" xmlns="http://www.w3.org/2000/svg">
    <path d="M13.3904 10.088C12.6664 9.36334 11.7777 9 10.736 9C9.69424 9 8.80585 9.36327 8.08212 10.088C7.35811 10.813 6.99512 11.7027 6.99512 12.746C6.99512 13.7892 7.35811 14.679 8.08212 15.404C8.80585 16.1287 9.69424 16.492 10.736 16.492C11.1572 16.492 11.5568 16.4248 11.9336 16.2894C12.2522 16.1748 12.5412 16.0247 12.7998 15.8385L15.7529 18.7957C15.8909 18.9338 16.0666 19 16.2652 19C16.4637 19 16.6395 18.9338 16.7775 18.7957C16.9188 18.6541 16.9951 18.4805 16.9951 18.2827C16.9951 18.0896 16.9268 17.9193 16.7911 17.7835L13.8242 14.8126C14.0102 14.5537 14.1602 14.2643 14.2745 13.9452C14.4098 13.5679 14.4769 13.1677 14.4769 12.746C14.4769 11.7028 14.1141 10.8131 13.3904 10.088ZM13.017 12.746C13.017 13.3834 12.7964 13.9193 12.3522 14.3645C11.9076 14.8092 11.3724 15.0301 10.736 15.0301C10.0996 15.0301 9.56439 14.8092 9.11979 14.3645C8.67556 13.9193 8.45497 13.3834 8.45497 12.746C8.45497 12.1086 8.67556 11.5728 9.11979 11.1276C9.56439 10.6827 10.0995 10.4618 10.736 10.4618C11.3724 10.4618 11.9076 10.6827 12.3522 11.1275C12.7964 11.5727 13.017 12.1086 13.017 12.746Z" fill="currentColor"/>
    <path d="M2.99533 0H10.4953C10.4953 1.6 8.82866 2.33333 7.99533 2.5H3.49533C2.69533 2.5 2.49533 3.16667 2.49533 3.5V5.34596C0 5.34596 -0.0046725 6.5 -0.0046725 6.5V4C-0.0046725 1.6 -0.00467253 0 2.99533 0Z" fill="currentColor"/>
    <path d="M2.99512 6H7.99512C7.99512 7.6 6.32845 8.33333 5.49512 8.5H3.49512C2.69512 8.5 2.49512 9.16667 2.49512 9.5V14L-0.00488281 16V10C-0.00488281 7.6 -0.00488281 6 2.99512 6Z" fill="currentColor"/>
</svg>
